<svg width="24" height="24" viewBox="0 0 24 24" fill="none" xmlns="http://www.w3.org/2000/svg">
<g clip-path="url(#clip0_58_93)">
<path d="M12.072 21.192C11.656 21.192 11.24 21.16 10.824 21.096C10.424 21.032 10.032 20.912 9.648 20.736C9.28 20.56 8.936 20.336 8.616 20.064C8.312 19.776 8.056 19.456 7.848 19.104C7.64 18.736 7.488 18.352 7.392 17.952C7.296 17.536 7.248 17.12 7.248 16.704V16.584H9.408V16.656C9.408 17.008 9.464 17.36 9.576 17.712C9.704 18.048 9.888 18.344 10.128 18.6C10.384 18.84 10.68 19.016 11.016 19.128C11.368 19.224 11.72 19.272 12.072 19.272C12.456 19.272 12.824 19.2 13.176 19.056C13.544 18.912 13.84 18.696 14.064 18.408C14.304 18.12 14.472 17.792 14.568 17.424C14.68 17.04 14.736 16.656 14.736 16.272C14.736 15.968 14.704 15.664 14.64 15.36C14.576 15.04 14.464 14.744 14.304 14.472C14.16 14.184 13.968 13.928 13.728 13.704C13.504 13.48 13.248 13.304 12.96 13.176C12.672 13.032 12.368 12.944 12.048 12.912C11.728 12.88 11.408 12.864 11.088 12.864V10.944C11.376 10.944 11.664 10.928 11.952 10.896C12.24 10.864 12.512 10.792 12.768 10.68C13.04 10.552 13.28 10.392 13.488 10.2C13.696 9.992 13.864 9.76 13.992 9.504C14.12 9.232 14.208 8.96 14.256 8.688C14.32 8.4 14.352 8.112 14.352 7.824C14.352 7.488 14.312 7.152 14.232 6.816C14.152 6.48 14.008 6.184 13.8 5.928C13.608 5.656 13.352 5.448 13.032 5.304C12.728 5.16 12.408 5.088 12.072 5.088C11.752 5.088 11.432 5.152 11.112 5.28C10.808 5.408 10.552 5.6 10.344 5.856C10.152 6.096 10.008 6.376 9.912 6.696C9.832 7.016 9.792 7.336 9.792 7.656V7.776H7.632V7.584C7.632 7.2 7.672 6.816 7.752 6.432C7.848 6.032 7.984 5.656 8.16 5.304C8.336 4.952 8.56 4.64 8.832 4.368C9.12 4.08 9.44 3.848 9.792 3.672C10.144 3.48 10.512 3.352 10.896 3.288C11.28 3.208 11.672 3.168 12.072 3.168C12.472 3.168 12.872 3.208 13.272 3.288C13.672 3.368 14.048 3.504 14.4 3.696C14.752 3.888 15.064 4.136 15.336 4.44C15.608 4.744 15.832 5.08 16.008 5.448C16.184 5.8 16.312 6.176 16.392 6.576C16.472 6.96 16.512 7.352 16.512 7.752C16.512 8.184 16.464 8.608 16.368 9.024C16.272 9.424 16.12 9.808 15.912 10.176C15.704 10.544 15.448 10.872 15.144 11.16C14.84 11.448 14.496 11.688 14.112 11.88C14.544 12.056 14.936 12.304 15.288 12.624C15.656 12.928 15.96 13.28 16.2 13.68C16.44 14.08 16.616 14.512 16.728 14.976C16.84 15.424 16.896 15.88 16.896 16.344C16.896 16.776 16.848 17.208 16.752 17.64C16.672 18.056 16.536 18.456 16.344 18.84C16.152 19.224 15.904 19.576 15.6 19.896C15.296 20.2 14.952 20.456 14.568 20.664C14.184 20.856 13.776 20.992 13.344 21.072C12.928 21.152 12.504 21.192 12.072 21.192Z" fill="black"/>
</g>
<defs>
<clipPath id="clip0_58_93">
<rect width="24" height="24" fill="white"/>
</clipPath>
</defs>
</svg>
