<svg width="24" height="24" viewBox="0 0 24 24" fill="none" xmlns="http://www.w3.org/2000/svg">
<g clip-path="url(#clip0_58_102)">
<path d="M10.056 21C10.056 20.088 10.136 19.184 10.296 18.288C10.456 17.392 10.672 16.512 10.944 15.648C11.216 14.784 11.52 13.928 11.856 13.08C12.192 12.232 12.52 11.384 12.84 10.536C13.16 9.688 13.44 8.824 13.68 7.944C13.936 7.064 14.12 6.176 14.232 5.28H7.488V3.36H16.512C16.512 4.368 16.408 5.376 16.2 6.384C16.008 7.376 15.744 8.36 15.408 9.336C15.088 10.296 14.736 11.248 14.352 12.192C13.968 13.12 13.616 14.072 13.296 15.048C12.976 16.008 12.712 16.992 12.504 18C12.312 18.992 12.216 19.992 12.216 21H10.056Z" fill="black"/>
</g>
<defs>
<clipPath id="clip0_58_102">
<rect width="24" height="24" fill="white"/>
</clipPath>
</defs>
</svg>
