<svg width="24" height="24" viewBox="0 0 24 24" fill="none" xmlns="http://www.w3.org/2000/svg">
<g clip-path="url(#clip0_58_90)">
<path d="M7.488 21V19.08L12.6 12.192C12.824 11.872 13.048 11.56 13.272 11.256C13.496 10.952 13.696 10.632 13.872 10.296C14.064 9.944 14.208 9.584 14.304 9.216C14.4 8.848 14.448 8.472 14.448 8.088C14.448 7.72 14.408 7.36 14.328 7.008C14.264 6.64 14.12 6.304 13.896 6C13.688 5.696 13.416 5.472 13.08 5.328C12.744 5.168 12.392 5.088 12.024 5.088C11.688 5.088 11.36 5.152 11.04 5.28C10.72 5.392 10.448 5.576 10.224 5.832C10 6.072 9.84 6.36 9.744 6.696C9.648 7.016 9.6 7.344 9.6 7.68V7.776H7.44V7.608C7.44 7.208 7.48 6.816 7.56 6.432C7.656 6.032 7.8 5.656 7.992 5.304C8.184 4.936 8.424 4.616 8.712 4.344C9 4.056 9.32 3.824 9.672 3.648C10.04 3.472 10.424 3.352 10.824 3.288C11.224 3.208 11.624 3.168 12.024 3.168C12.456 3.168 12.88 3.208 13.296 3.288C13.712 3.368 14.104 3.512 14.472 3.72C14.84 3.928 15.168 4.2 15.456 4.536C15.744 4.856 15.976 5.208 16.152 5.592C16.328 5.976 16.448 6.384 16.512 6.816C16.576 7.232 16.608 7.656 16.608 8.088C16.608 8.568 16.552 9.048 16.44 9.528C16.328 10.008 16.16 10.464 15.936 10.896C15.712 11.328 15.456 11.744 15.168 12.144C14.896 12.544 14.616 12.936 14.328 13.32L10.056 19.08H16.512V21H7.488Z" fill="black"/>
</g>
<defs>
<clipPath id="clip0_58_90">
<rect width="24" height="24" fill="white"/>
</clipPath>
</defs>
</svg>
