<svg width="24" height="24" viewBox="0 0 24 24" fill="none" xmlns="http://www.w3.org/2000/svg">
<g clip-path="url(#clip0_58_96)">
<path d="M12.072 21.192C11.688 21.192 11.304 21.16 10.92 21.096C10.536 21.032 10.168 20.92 9.816 20.76C9.48 20.6 9.16 20.392 8.856 20.136C8.568 19.864 8.32 19.568 8.112 19.248C7.92 18.912 7.768 18.56 7.656 18.192C7.544 17.824 7.48 17.448 7.464 17.064H9.624C9.656 17.368 9.736 17.664 9.864 17.952C9.992 18.224 10.168 18.464 10.392 18.672C10.616 18.88 10.872 19.032 11.16 19.128C11.464 19.224 11.768 19.272 12.072 19.272C12.328 19.272 12.584 19.232 12.84 19.152C13.112 19.056 13.344 18.92 13.536 18.744C13.744 18.568 13.912 18.36 14.04 18.12C14.168 17.88 14.272 17.632 14.352 17.376C14.432 17.12 14.48 16.856 14.496 16.584C14.528 16.312 14.544 16.04 14.544 15.768C14.544 15.496 14.528 15.224 14.496 14.952C14.464 14.68 14.4 14.416 14.304 14.16C14.224 13.888 14.104 13.64 13.944 13.416C13.784 13.192 13.592 13 13.368 12.84C13.144 12.68 12.896 12.568 12.624 12.504C12.352 12.44 12.08 12.408 11.808 12.408H7.92L8.688 3.36H16.056V5.28H10.68L10.248 10.488H11.808C12.256 10.488 12.704 10.536 13.152 10.632C13.616 10.712 14.048 10.864 14.448 11.088C14.848 11.312 15.2 11.6 15.504 11.952C15.808 12.288 16.048 12.672 16.224 13.104C16.416 13.52 16.544 13.96 16.608 14.424C16.672 14.872 16.704 15.32 16.704 15.768C16.704 16.216 16.672 16.664 16.608 17.112C16.544 17.56 16.432 18 16.272 18.432C16.112 18.848 15.888 19.24 15.6 19.608C15.328 19.96 15 20.264 14.616 20.52C14.248 20.76 13.84 20.928 13.392 21.024C12.96 21.136 12.52 21.192 12.072 21.192Z" fill="black"/>
</g>
<defs>
<clipPath id="clip0_58_96">
<rect width="24" height="24" fill="white"/>
</clipPath>
</defs>
</svg>
