<svg width="24" height="24" viewBox="0 0 24 24" fill="none" xmlns="http://www.w3.org/2000/svg">
<g clip-path="url(#clip0_58_99)">
<path d="M12 21.192C11.536 21.192 11.08 21.136 10.632 21.024C10.184 20.928 9.768 20.752 9.384 20.496C9 20.24 8.664 19.928 8.376 19.56C8.104 19.192 7.888 18.8 7.728 18.384C7.568 17.952 7.456 17.512 7.392 17.064C7.328 16.6 7.296 16.136 7.296 15.672C7.296 15.016 7.328 14.36 7.392 13.704C7.456 13.048 7.536 12.4 7.632 11.76C7.728 11.104 7.864 10.456 8.04 9.816C8.216 9.176 8.44 8.56 8.712 7.968C9 7.376 9.344 6.824 9.744 6.312C10.144 5.784 10.6 5.312 11.112 4.896C11.624 4.464 12.176 4.104 12.768 3.816C13.36 3.528 13.976 3.312 14.616 3.168L15.144 5.04C14.376 5.248 13.664 5.584 13.008 6.048C12.352 6.512 11.792 7.072 11.328 7.728C10.88 8.368 10.536 9.072 10.296 9.84C10.056 10.592 9.88 11.36 9.768 12.144C9.912 11.856 10.088 11.584 10.296 11.328C10.504 11.056 10.744 10.832 11.016 10.656C11.288 10.48 11.584 10.352 11.904 10.272C12.24 10.192 12.568 10.152 12.888 10.152C13.304 10.152 13.712 10.224 14.112 10.368C14.528 10.496 14.888 10.704 15.192 10.992C15.496 11.28 15.744 11.616 15.936 12C16.144 12.384 16.304 12.776 16.416 13.176C16.528 13.576 16.6 13.992 16.632 14.424C16.68 14.84 16.704 15.256 16.704 15.672C16.704 16.136 16.672 16.6 16.608 17.064C16.544 17.512 16.432 17.952 16.272 18.384C16.112 18.8 15.888 19.192 15.6 19.56C15.328 19.928 15 20.24 14.616 20.496C14.232 20.752 13.816 20.928 13.368 21.024C12.92 21.136 12.464 21.192 12 21.192ZM12 19.272C12.272 19.272 12.544 19.232 12.816 19.152C13.088 19.056 13.32 18.92 13.512 18.744C13.72 18.552 13.888 18.336 14.016 18.096C14.16 17.84 14.272 17.584 14.352 17.328C14.432 17.056 14.48 16.784 14.496 16.512C14.528 16.224 14.544 15.944 14.544 15.672C14.544 15.4 14.528 15.128 14.496 14.856C14.48 14.568 14.432 14.296 14.352 14.04C14.272 13.768 14.16 13.512 14.016 13.272C13.888 13.016 13.72 12.8 13.512 12.624C13.32 12.432 13.088 12.296 12.816 12.216C12.544 12.12 12.272 12.072 12 12.072C11.648 12.072 11.304 12.152 10.968 12.312C10.648 12.456 10.384 12.664 10.176 12.936C9.968 13.208 9.808 13.52 9.696 13.872C9.584 14.208 9.512 14.544 9.48 14.88C9.464 15.024 9.456 15.16 9.456 15.288C9.456 15.416 9.456 15.544 9.456 15.672C9.456 15.944 9.464 16.224 9.48 16.512C9.512 16.784 9.568 17.056 9.648 17.328C9.728 17.584 9.832 17.84 9.96 18.096C10.104 18.336 10.272 18.552 10.464 18.744C10.672 18.92 10.912 19.056 11.184 19.152C11.456 19.232 11.728 19.272 12 19.272Z" fill="black"/>
</g>
<defs>
<clipPath id="clip0_58_99">
<rect width="24" height="24" fill="white"/>
</clipPath>
</defs>
</svg>
